<svg width="105" height="93" viewBox="0 0 105 93" fill="none" xmlns="http://www.w3.org/2000/svg">
<path d="M77.3267 71.7369C77.7598 72.4798 77.5028 73.4296 76.7528 73.8585L74.9804 74.8721C74.7333 75.0134 74.4638 75.0804 74.1976 75.0804C73.6557 75.0804 73.1285 74.802 72.8382 74.3036C72.4051 73.5608 72.6621 72.6109 73.4122 72.182L75.1845 71.1684C75.9346 70.7396 76.8937 70.9941 77.3267 71.7369ZM76.753 65.2697L74.9806 64.2562C74.2306 63.8273 73.2717 64.0818 72.8382 64.8246C72.4051 65.5675 72.6621 66.5174 73.4122 66.9465L75.1845 67.96C75.4316 68.1014 75.7011 68.1684 75.9673 68.1684C76.5092 68.1684 77.0362 67.8899 77.3267 67.3918C77.7598 66.6487 77.5031 65.6989 76.753 65.2697ZM60.4858 85.2198C52.3179 89.0654 43.1586 90.0932 34.4244 88.1892C41.1315 87.9604 47.707 86.1745 53.7078 82.9213C54.8804 82.2858 56.0398 81.5864 57.1537 80.8427C57.8719 80.3632 58.0615 79.398 57.5773 78.6867C57.0932 77.9753 56.1186 77.7874 55.4004 78.2669C54.3662 78.9574 53.2902 79.6064 52.2018 80.1964C46.1576 83.4731 39.4849 85.1434 32.7168 85.107C38.4646 82.0193 43.6681 77.8817 47.8972 73.0156C52.8607 67.3035 56.4614 60.7363 58.5992 53.4963C60.7391 46.2512 61.2797 38.7964 60.2064 31.3396C59.459 26.1412 57.9322 21.0781 55.6681 16.289C55.5697 16.0356 55.4053 15.8106 55.1896 15.638L47.0981 9.17058C47.0575 9.1038 47.0797 8.82378 47.2643 8.65005L48.9071 7.10398L49.5439 7.739C50.1541 8.3474 51.1471 8.35073 51.7616 7.74633C52.3761 7.1417 52.3795 6.15832 51.769 5.54992L51.1811 4.96393L52.7738 3.46513C52.9586 3.29117 53.2416 3.28363 53.3041 3.32467L59.86 12.2649C60.0146 12.4757 60.2203 12.6448 60.4582 12.7562C68.1964 16.3828 74.4815 22.2705 78.6338 29.7831C80.8481 33.7894 82.3512 38.093 83.101 42.5744C83.2426 43.4206 84.05 43.9938 84.9045 43.8529C85.759 43.7126 86.337 42.913 86.1954 42.0667C85.388 37.2399 83.7693 32.605 81.3851 28.2917C76.9781 20.3183 70.3382 14.0431 62.1647 10.1213L55.8422 1.49948C55.298 0.757507 54.4706 0.300875 53.512 0.213898C52.4642 0.118489 51.3794 0.492359 50.6134 1.21347L45.1035 6.39862C44.3375 7.11973 43.9056 8.17278 43.9483 9.2154C43.9873 10.1679 44.4058 11.0095 45.1259 11.5851L52.9297 17.824C55.0058 22.27 56.4088 26.9628 57.1012 31.7783C57.1855 32.3641 57.2594 32.9496 57.3226 33.5354C56.376 35.5396 55.2745 37.4809 54.045 39.3107C50.5236 44.5507 45.9978 48.8996 40.593 52.2364C35.1919 55.5715 29.2577 57.6809 22.9549 58.5057C16.7119 59.3222 10.2014 58.8006 4.12646 56.9978C3.30963 56.755 2.44553 56.8416 1.69433 57.2425C0.943142 57.643 0.394479 58.3095 0.149384 59.1187C-0.133125 60.0511 0.0382625 61.0706 0.606865 61.8625L1.35313 63.0474C1.39256 63.115 1.43468 63.1818 1.47926 63.2468C6.98381 71.9286 15.6007 77.9924 25.747 80.3228C26.5883 80.5159 27.4441 80.6834 28.2909 80.8207C29.1459 80.9592 29.9522 80.3854 30.092 79.5387C30.2318 78.6922 29.6524 77.8937 28.7975 77.755C28.0181 77.6287 27.2299 77.4745 26.4554 77.2968C18.3211 75.4283 11.2566 70.9534 6.22545 64.5506C10.6148 67.9199 15.7089 70.3182 21.2314 71.5869C28.3326 73.2182 35.6987 72.8565 42.5333 70.5407C43.3529 70.2632 43.7897 69.3801 43.5095 68.5684C43.2292 67.757 42.3371 67.3244 41.518 67.6017C35.2396 69.7291 28.4697 70.0608 21.9402 68.5611C16.204 67.2434 10.9716 64.601 6.6099 60.845C12.1062 62.0509 17.8343 62.3092 23.366 61.5854C30.115 60.7021 36.4696 58.4433 42.2526 54.8726C48.0395 51.2999 52.8853 46.6432 56.6563 41.0319C56.9789 40.5515 57.2935 40.064 57.5993 39.5703C57.5274 43.9674 56.8562 48.3351 55.589 52.6249C53.5776 59.4371 50.19 65.6159 45.5204 70.9898C40.8959 76.3108 35.0324 80.7078 28.5649 83.7052C27.7441 84.0851 27.1217 84.7589 26.8125 85.6023C26.5036 86.4456 26.5446 87.3578 26.9277 88.1701C27.3699 89.1084 28.2367 89.7972 29.2561 90.025C29.2561 90.025 30.9487 90.5181 31.0313 90.5385C34.9764 91.6676 39.0299 92.2277 43.0753 92.2277C49.5024 92.2277 55.9098 90.8143 61.8327 88.0257C62.615 87.6573 62.9477 86.7308 62.5756 85.9562C62.2037 85.1809 61.2681 84.8516 60.4858 85.2198ZM68.7226 24.2698C67.9629 24.6816 67.6842 25.6257 68.1003 26.3781C71.0322 31.682 72.7313 37.6539 73.0138 43.6483C73.053 44.4806 73.7466 45.1291 74.5792 45.1291C74.6038 45.1291 74.6287 45.1287 74.6535 45.1276C75.5188 45.0874 76.1873 44.3605 76.147 43.5036C75.8427 37.0402 74.0115 30.6023 70.8517 24.8864C70.4354 24.134 69.4826 23.858 68.7226 24.2698ZM81.1275 73.9102C80.2614 73.9102 79.5593 74.6056 79.5593 75.4634V77.4905C79.5593 78.3483 80.2614 79.0437 81.1275 79.0437C81.9936 79.0437 82.6958 78.3483 82.6958 77.4905V75.4634C82.6958 74.6056 81.9934 73.9102 81.1275 73.9102ZM88.8422 72.1822L87.0696 71.1689C86.32 70.7404 85.3604 70.9945 84.9274 71.7376C84.4943 72.4804 84.7515 73.4303 85.5016 73.8592L87.2741 74.8725C87.521 75.0137 87.7908 75.0807 88.0567 75.0807C88.5986 75.0807 89.1258 74.8022 89.4164 74.3039C89.8492 73.561 89.5922 72.6111 88.8422 72.1822ZM96.7836 69.5645C96.7836 78.1144 89.76 85.0702 81.1271 85.0702C72.4941 85.0702 65.4708 78.1142 65.4708 69.5645C65.4708 61.0147 72.4941 54.0587 81.1271 54.0587C89.76 54.0587 96.7836 61.0145 96.7836 69.5645ZM93.6471 69.5645C93.6471 62.7274 88.0307 57.1651 81.1271 57.1651C74.2236 57.1651 68.6073 62.7274 68.6073 69.5645C68.6073 76.4015 74.2236 81.9639 81.1271 81.9639C88.0307 81.9639 93.6471 76.4015 93.6471 69.5645ZM81.1275 60.0853C80.2614 60.0853 79.5593 60.7806 79.5593 61.6384V63.6653C79.5593 64.5231 80.2614 65.2185 81.1275 65.2185C81.9936 65.2185 82.6958 64.5231 82.6958 63.6653V61.6384C82.6958 60.7806 81.9934 60.0853 81.1275 60.0853ZM104.016 69.5645C104.016 82.0639 93.7479 92.2332 81.1268 92.2332C68.5062 92.2332 58.2385 82.0639 58.2385 69.5645C58.2385 57.065 68.5062 46.8957 81.1268 46.8957C93.7479 46.8957 104.016 57.0648 104.016 69.5645ZM100.879 69.5645C100.879 58.7777 92.0183 50.0021 81.1268 50.0021C70.2356 50.0021 61.375 58.7777 61.375 69.5645C61.375 80.3512 70.2356 89.1269 81.1268 89.1269C92.0183 89.1266 100.879 80.3512 100.879 69.5645ZM87.2739 64.2557L85.5013 65.2693C84.7513 65.6982 84.4943 66.6481 84.9274 67.3909C85.2177 67.8893 85.7449 68.1677 86.287 68.1677C86.5532 68.1677 86.8227 68.1007 87.0696 67.9594L88.8422 66.9458C89.5922 66.5169 89.8492 65.5671 89.4161 64.8242C88.9831 64.0813 88.0238 63.8268 87.2739 64.2557Z" fill="white"/>
</svg>
