<svg width="57" height="57" viewBox="0 0 57 57" fill="none" xmlns="http://www.w3.org/2000/svg">
<g clip-path="url(#clip0_7_106)">
<path d="M36.272 25.308C36.378 25.344 36.487 25.361 36.593 25.361C37.01 25.361 37.399 25.099 37.54 24.682C37.853 23.764 38.854 23.271 39.772 23.582C41.734 24.246 43.875 23.193 44.54 21.23C44.718 20.708 44.438 20.139 43.915 19.961C43.39 19.784 42.824 20.064 42.646 20.587C42.334 21.506 41.333 21.999 40.414 21.687C38.455 21.026 36.312 22.077 35.646 24.039C35.469 24.561 35.749 25.13 36.272 25.308Z" fill="white"/>
<path d="M38.638 18.34C38.744 18.376 38.853 18.393 38.959 18.393C39.376 18.393 39.765 18.131 39.906 17.714C40.057 17.269 40.372 16.909 40.794 16.701C41.216 16.493 41.693 16.463 42.138 16.614C44.1 17.278 46.24 16.225 46.906 14.261C47.084 13.739 46.803 13.17 46.281 12.992C45.758 12.812 45.19 13.095 45.013 13.618C44.701 14.538 43.702 15.031 42.781 14.719C41.829 14.396 40.81 14.462 39.91 14.907C39.01 15.351 38.336 16.12 38.013 17.071C37.834 17.594 38.115 18.162 38.638 18.34Z" fill="white"/>
<path d="M41.0019 11.372C41.1089 11.408 41.2169 11.425 41.3239 11.425C41.7409 11.425 42.1299 11.163 42.2709 10.746C42.5009 10.068 43.2419 9.70298 43.9189 9.93298C44.7539 10.216 45.6489 10.158 46.4399 9.76898C47.2299 9.37898 47.8209 8.70498 48.1049 7.86998C48.2829 7.34798 48.0029 6.77898 47.4799 6.60098C46.9549 6.42198 46.3889 6.70398 46.2109 7.22698C46.0989 7.55598 45.8659 7.82198 45.5549 7.97498C45.2439 8.12798 44.8919 8.15098 44.5619 8.03798C42.8399 7.45698 40.9609 8.38098 40.3769 10.102C40.1999 10.626 40.4789 11.194 41.0019 11.372Z" fill="white"/>
<path d="M48.246 25.234C48.072 25.115 47.876 25.047 47.676 25.021C49.663 18.564 50.753 12.238 50.909 6.21298C50.958 4.31798 50.032 1.78798 48.165 0.616985C47.269 0.0539847 45.801 -0.410015 43.895 0.570985C40.908 2.11198 38.772 6.64498 37.056 10.289C36.957 10.499 36.86 10.704 36.764 10.907C36.385 9.16398 35.233 7.67298 33.595 6.89498C33.209 5.03898 31.737 3.58498 29.887 3.20798C29.867 3.10398 29.842 3.00198 29.811 2.89898C29.43 1.59698 28.281 0.616985 26.952 0.458985C26.203 0.369985 25.461 0.524985 24.827 0.895985C24.287 0.594985 23.681 0.434985 23.059 0.434985C21.32 0.434985 19.859 1.64798 19.478 3.27098C17.577 3.78898 16.183 5.53398 16.168 7.56198C13.999 8.12198 12.419 10.082 12.419 12.413C12.419 13.031 12.535 13.643 12.758 14.22C12.195 14.915 11.883 15.785 11.883 16.698C11.883 17.246 11.996 17.774 12.209 18.262C11.21 17.172 9.80396 16.281 8.22496 16.339C7.67296 16.357 7.23896 16.818 7.25596 17.37C7.27296 17.911 7.71696 18.339 8.25496 18.339C8.28896 18.34 8.31996 18.337 8.35196 18.337C9.28896 18.337 10.16 18.957 10.794 19.677C9.20796 20.134 7.29596 20.878 6.40396 22.56C5.86696 23.575 5.80396 24.82 6.16196 26.246C5.98896 26.535 5.89396 26.871 5.91196 27.229L7.61396 51.416C7.76896 54.449 10.269 56.824 13.305 56.824H41.376C44.412 56.824 46.912 54.449 47.066 51.434L48.811 26.406C48.811 26.4 48.812 26.394 48.812 26.388C48.84 25.927 48.627 25.496 48.246 25.234ZM37.58 13.767C37.976 13.028 38.408 12.112 38.865 11.141C40.368 7.94898 42.428 3.57798 44.811 2.34798C45.681 1.89998 46.43 1.89098 47.102 2.30998C48.261 3.03798 48.943 4.87498 48.91 6.16098C48.757 12.073 47.677 18.295 45.699 24.655C45.634 24.864 45.49 25.286 45.285 25.865L43.581 26.622C43.544 26.639 43.508 26.657 43.473 26.679C42.981 26.974 42.429 27.12 41.877 27.126C41.325 27.12 40.774 26.974 40.282 26.679L39.569 26.251C38.749 25.759 37.83 25.513 36.911 25.513C36.9 25.513 36.889 25.515 36.877 25.515C35.947 25.509 35.015 25.752 34.185 26.251L33.473 26.679C33.076 26.917 32.637 27.033 32.193 27.083C32.218 26.996 32.247 26.911 32.273 26.825C32.547 25.894 32.841 24.976 33.149 24.065C33.266 23.719 33.388 23.375 33.51 23.032C33.767 22.309 34.036 21.595 34.314 20.886C34.438 20.569 34.559 20.249 34.687 19.935C35.559 17.808 36.521 15.745 37.58 13.767ZM24.832 16.139C24.949 15.989 25.063 15.843 25.171 15.701C25.171 15.699 25.172 15.698 25.173 15.697C25.252 15.592 25.321 15.483 25.379 15.374C25.625 14.911 25.683 14.391 25.569 13.883L29.743 12.97C29.771 13.098 29.801 13.225 29.849 13.343C30.036 13.801 30.37 14.182 30.835 14.448C30.987 14.532 31.146 14.616 31.31 14.703C31.445 14.774 31.58 14.848 31.716 14.922C31.781 14.957 31.847 14.992 31.912 15.028C32.031 15.095 32.146 15.169 32.262 15.242C32.361 15.303 32.459 15.366 32.555 15.433C32.666 15.51 32.772 15.595 32.878 15.681C32.971 15.757 33.06 15.84 33.148 15.925C33.243 16.018 33.337 16.113 33.424 16.217C33.578 16.401 33.726 16.592 33.847 16.821C33.423 17.757 33.024 18.712 32.638 19.675C32.578 19.824 32.514 19.969 32.455 20.118C31.359 20.396 30.3 20.916 28.992 21.847C27.344 23.018 26.117 23.329 24.095 23.036L23.488 20.257C23.076 18.378 23.969 17.24 24.832 16.139ZM29.791 10.066C29.817 10.061 29.843 10.058 29.869 10.058C30.058 10.058 30.235 10.193 30.276 10.383C30.308 10.527 30.254 10.64 30.218 10.695C30.183 10.749 30.104 10.844 29.961 10.875L24.437 12.084C24.217 12.132 23.993 11.986 23.945 11.768C23.897 11.549 24.042 11.324 24.261 11.276L27.196 10.634L29.791 10.066ZM26.559 25.533C26.483 25.538 26.406 25.54 26.33 25.548C25.785 25.603 25.247 25.741 24.736 25.971L24.545 25.096C24.833 25.12 25.12 25.144 25.389 25.144C27.133 25.144 28.537 24.625 30.151 23.477C30.659 23.115 31.109 22.841 31.537 22.614C31.445 22.875 31.354 23.135 31.265 23.397C31.201 23.585 31.132 23.77 31.07 23.959C30.776 24.849 30.496 25.746 30.235 26.651L29.57 26.253C28.75 25.761 27.831 25.515 26.912 25.515C26.9 25.515 26.887 25.517 26.875 25.517C26.769 25.515 26.664 25.527 26.559 25.533ZM14.598 15.192L15.253 14.652L14.828 13.919C14.562 13.459 14.421 12.939 14.421 12.413C14.421 10.793 15.69 9.47199 17.31 9.40399L18.524 9.35298L18.241 8.17098C18.193 7.97298 18.169 7.77798 18.169 7.59298C18.169 6.30498 19.175 5.21998 20.459 5.12198L21.383 5.05198V4.05698C21.412 3.15798 22.153 2.43498 23.06 2.43498C23.582 2.43498 23.956 2.67298 24.177 2.87298L24.878 3.50598L25.55 2.84198C25.858 2.53798 26.281 2.39598 26.717 2.44598C27.253 2.50898 27.737 2.92698 27.893 3.46398C27.946 3.64398 27.961 3.81798 27.94 3.99498L27.823 5.11198H28.949C30.386 5.11198 31.588 6.23498 31.687 7.66898L31.732 8.32598L32.353 8.54398C33.916 9.09298 34.944 10.572 34.909 12.227C34.894 12.934 34.666 13.615 34.253 14.212C33.584 13.644 32.863 13.261 32.257 12.942C32.1 12.859 31.948 12.779 31.795 12.694C31.752 12.67 31.7 12.628 31.682 12.523C31.658 12.379 31.712 12.206 31.821 12.079C32.257 11.573 32.432 10.883 32.291 10.232L32.17 9.68098C32.049 9.12498 31.717 8.64998 31.237 8.34198C30.758 8.03498 30.188 7.93198 29.633 8.05398L29.365 8.11298C29.362 8.11398 29.359 8.11299 29.356 8.11399L26.421 8.75598L23.557 9.38098C23.002 9.50198 22.527 9.83298 22.219 10.314C21.911 10.793 21.809 11.364 21.93 11.919L21.99 12.191C21.99 12.192 21.99 12.193 21.99 12.194C21.99 12.195 21.991 12.196 21.991 12.198L22.05 12.469C22.195 13.135 22.658 13.696 23.287 13.966C23.443 14.033 23.573 14.16 23.618 14.289C23.644 14.363 23.629 14.401 23.571 14.497C23.571 14.497 23.571 14.497 23.571 14.498C23.472 14.631 23.365 14.766 23.256 14.905C23.146 15.045 23.032 15.192 22.916 15.344C22.877 15.395 22.84 15.448 22.801 15.5C22.718 15.613 22.635 15.728 22.553 15.848C22.508 15.913 22.465 15.98 22.421 16.048C22.345 16.165 22.272 16.286 22.2 16.41C22.158 16.482 22.117 16.553 22.077 16.628C22.002 16.768 21.934 16.915 21.867 17.065C21.838 17.129 21.807 17.19 21.781 17.257C21.693 17.475 21.615 17.703 21.553 17.943C21.543 17.981 21.539 18.022 21.53 18.061C21.482 18.265 21.443 18.476 21.418 18.696C21.408 18.784 21.406 18.876 21.4 18.967C21.392 19.085 21.377 19.197 21.377 19.32C21.373 19.315 21.369 19.31 21.365 19.305C21.351 19.287 21.337 19.271 21.324 19.253C21.15 19.024 20.976 18.813 20.801 18.613C20.746 18.55 20.69 18.489 20.634 18.429C20.487 18.27 20.34 18.121 20.192 17.981C20.144 17.936 20.096 17.887 20.047 17.843C19.86 17.676 19.672 17.523 19.483 17.387C19.43 17.349 19.376 17.317 19.323 17.281C19.181 17.186 19.039 17.098 18.895 17.02C18.825 16.982 18.756 16.945 18.685 16.911C18.536 16.838 18.386 16.776 18.235 16.722C18.185 16.704 18.135 16.68 18.085 16.664C17.921 16.612 17.756 16.57 17.59 16.539C17.571 16.535 17.552 16.537 17.533 16.534C17.499 16.528 17.466 16.515 17.432 16.51C17.316 16.493 17.206 16.5 17.092 16.492C17.012 16.487 16.933 16.47 16.853 16.47C16.829 16.47 16.804 16.476 16.779 16.476C16.624 16.478 16.474 16.496 16.323 16.515C16.248 16.525 16.173 16.531 16.098 16.545C15.901 16.581 15.71 16.631 15.521 16.691C15.492 16.7 15.464 16.707 15.435 16.717C14.937 16.886 14.465 17.125 14.023 17.414C13.932 17.189 13.884 16.947 13.884 16.698C13.885 16.113 14.145 15.564 14.598 15.192ZM8.17296 23.495C8.59596 22.698 9.62296 22.09 11.406 21.58C12.24 21.342 13.014 20.897 13.642 20.297C13.927 20.024 14.194 19.793 14.452 19.583C15.258 18.928 15.953 18.572 16.582 18.491C16.596 18.489 16.61 18.487 16.624 18.486C16.823 18.464 17.016 18.47 17.203 18.503C17.252 18.512 17.302 18.529 17.352 18.542C17.445 18.565 17.537 18.588 17.63 18.625C17.69 18.648 17.75 18.683 17.811 18.711C17.898 18.753 17.984 18.791 18.071 18.844C18.139 18.885 18.207 18.938 18.275 18.985C18.356 19.042 18.437 19.094 18.519 19.16C18.595 19.221 18.671 19.295 18.747 19.364C18.823 19.433 18.899 19.496 18.975 19.573C19.059 19.658 19.144 19.757 19.229 19.852C19.298 19.929 19.367 20 19.437 20.083C19.532 20.197 19.628 20.327 19.724 20.453C19.785 20.533 19.845 20.605 19.906 20.69C20.015 20.842 20.125 21.011 20.235 21.179C20.283 21.253 20.332 21.319 20.38 21.395C20.539 21.646 20.699 21.913 20.86 22.197C21.596 23.496 21.84 25.415 21.52 27.086C21.467 27.081 21.415 27.073 21.362 27.065C20.981 27 20.614 26.878 20.28 26.678L19.567 26.25C18.747 25.758 17.828 25.512 16.909 25.512C16.898 25.512 16.887 25.514 16.875 25.514C15.945 25.508 15.013 25.751 14.183 26.25L13.836 26.458C13.231 26.821 12.553 27.004 11.875 27.01C11.196 27.004 10.519 26.822 9.91396 26.458L8.56896 25.65C8.56896 25.65 8.56796 25.65 8.56796 25.649C8.39096 25.544 8.19996 25.472 8.00396 25.436C7.84696 24.645 7.90296 24.005 8.17296 23.495ZM45.074 51.313C44.973 53.281 43.35 54.823 41.38 54.823H13.308C11.337 54.823 9.71496 53.281 9.61296 51.294L7.94896 27.652L8.81896 28.174C9.76196 28.74 10.821 29.018 11.877 29.012C12.934 29.018 13.992 28.74 14.935 28.174L15.282 27.966C15.774 27.67 16.325 27.524 16.877 27.518C17.429 27.524 17.98 27.67 18.473 27.966L19.186 28.394C20.088 28.935 21.11 29.167 22.12 29.112C22.21 29.108 22.3 29.108 22.391 29.1C22.402 29.099 22.412 29.093 22.424 29.092C23.107 29.015 23.777 28.8 24.395 28.448C24.453 28.427 24.515 28.426 24.569 28.394L25.282 27.966C25.774 27.67 26.325 27.524 26.877 27.518C27.429 27.524 27.98 27.67 28.473 27.966L29.186 28.394C29.943 28.847 30.785 29.082 31.632 29.117C31.649 29.118 31.667 29.12 31.684 29.12C31.976 29.129 32.268 29.12 32.558 29.079C32.724 29.058 32.885 29.016 33.048 28.979C33.127 28.96 33.206 28.943 33.284 28.92C33.728 28.797 34.163 28.636 34.568 28.393L35.281 27.965C35.773 27.669 36.324 27.523 36.876 27.517C37.428 27.523 37.979 27.669 38.472 27.965L39.185 28.393C40.011 28.888 40.938 29.131 41.864 29.127C41.879 29.127 41.895 29.13 41.91 29.13C42.808 29.13 43.707 28.896 44.513 28.426L46.475 27.554C46.517 27.535 46.547 27.499 46.586 27.475L46.739 27.407L45.074 51.313Z" fill="white"/>
<path d="M11.911 43.004H18.911C19.463 43.004 19.911 42.557 19.911 42.004C19.911 41.451 19.463 41.004 18.911 41.004H11.911C11.359 41.004 10.911 41.451 10.911 42.004C10.911 42.557 11.359 43.004 11.911 43.004Z" fill="white"/>
<path d="M11.911 47.004H20.911C21.463 47.004 21.911 46.557 21.911 46.004C21.911 45.451 21.463 45.004 20.911 45.004H11.911C11.359 45.004 10.911 45.451 10.911 46.004C10.911 46.557 11.359 47.004 11.911 47.004Z" fill="white"/>
<path d="M22.911 49.004H11.911C11.359 49.004 10.911 49.451 10.911 50.004C10.911 50.557 11.359 51.004 11.911 51.004H22.911C23.463 51.004 23.911 50.557 23.911 50.004C23.911 49.451 23.463 49.004 22.911 49.004Z" fill="white"/>
<path d="M28.911 49.004H26.911C26.359 49.004 25.911 49.451 25.911 50.004C25.911 50.557 26.359 51.004 26.911 51.004H28.911C29.463 51.004 29.911 50.557 29.911 50.004C29.911 49.451 29.463 49.004 28.911 49.004Z" fill="white"/>
</g>
<defs>
<clipPath id="clip0_7_106">
<rect width="56.823" height="56.823" fill="white"/>
</clipPath>
</defs>
</svg>
