<svg width="290" height="443" viewBox="0 0 290 443" fill="none" xmlns="http://www.w3.org/2000/svg">
<path d="M61.6129 131.9H75.7056V26.5663C75.7056 20.8623 80.8532 16.2231 87.1822 16.2231H153.511V131.9H167.519H180.177H197.814V16.2231H202.118C208.447 16.2231 213.595 20.8623 213.595 26.5663V131.9H227.687C230.894 131.9 233.426 129.542 233.426 126.728V29.3803C233.426 13.6373 219.164 0.708252 201.612 0.708252H87.6886C70.2204 0.708252 55.8745 13.5612 55.8745 29.3803V126.652C55.8745 129.542 58.4905 131.9 61.6129 131.9Z" fill="white"/>
<path d="M258.287 89.3999V96.8999V133.4C258.287 143.5 250.862 151.7 241.717 151.7H47.7733C38.6284 151.7 31.2038 143.5 31.2038 133.4V96.9999V89.4999C13.5478 92.7999 0.056839 109.7 0.056839 130.2V401.4C0.056839 424.2 16.8074 442.6 37.3608 442.6H252.039C272.683 442.6 289.343 424.1 289.343 401.4V130.1C289.434 109.6 275.943 92.6999 258.287 89.3999ZM79.554 401.7C70.1375 401.7 62.5319 393.3 62.5319 382.9C62.5319 372.5 70.1375 364.1 79.554 364.1C88.9706 364.1 96.5762 372.5 96.5762 382.9C96.4857 393.3 88.88 401.7 79.554 401.7ZM79.554 344.9C70.1375 344.9 62.5319 336.5 62.5319 326.1C62.5319 315.7 70.1375 307.3 79.554 307.3C88.9706 307.3 96.5762 315.7 96.5762 326.1C96.4857 336.5 88.88 344.9 79.554 344.9ZM79.554 288.2C70.1375 288.2 62.5319 279.8 62.5319 269.4C62.5319 259 70.1375 250.6 79.554 250.6C88.9706 250.6 96.5762 259 96.5762 269.4C96.4857 279.8 88.88 288.2 79.554 288.2ZM144.745 401.7C135.329 401.7 127.723 393.3 127.723 382.9C127.723 372.5 135.329 364.1 144.745 364.1C154.162 364.1 161.768 372.5 161.768 382.9C161.768 393.3 154.162 401.7 144.745 401.7ZM144.745 344.9C135.329 344.9 127.723 336.5 127.723 326.1C127.723 315.7 135.329 307.3 144.745 307.3C154.162 307.3 161.768 315.7 161.768 326.1C161.768 336.5 154.162 344.9 144.745 344.9ZM144.745 288.2C135.329 288.2 127.723 279.8 127.723 269.4C127.723 259 135.329 250.6 144.745 250.6C154.162 250.6 161.768 259 161.768 269.4C161.768 279.8 154.162 288.2 144.745 288.2ZM209.937 401.7C200.52 401.7 192.915 393.3 192.915 382.9C192.915 372.5 200.52 364.1 209.937 364.1C219.353 364.1 226.959 372.5 226.959 382.9C226.959 393.3 219.353 401.7 209.937 401.7ZM209.937 344.9C200.52 344.9 192.915 336.5 192.915 326.1C192.915 315.7 200.52 307.3 209.937 307.3C219.353 307.3 226.959 315.7 226.959 326.1C226.959 336.5 219.353 344.9 209.937 344.9ZM209.937 288.2C200.52 288.2 192.915 279.8 192.915 269.4C192.915 259 200.52 250.6 209.937 250.6C219.353 250.6 226.959 259 226.959 269.4C226.959 279.8 219.353 288.2 209.937 288.2ZM228.86 221.5C228.86 227.3 224.605 231.9 219.444 231.9H70.1375C64.886 231.9 60.721 227.2 60.721 221.5V193.2C60.721 187.4 64.9765 182.8 70.1375 182.8H219.444C224.695 182.8 228.86 187.5 228.86 193.2V221.5Z" fill="white"/>
</svg>
