<svg width="296" height="404" viewBox="0 0 296 404" fill="none" xmlns="http://www.w3.org/2000/svg">
<path d="M246.071 64.6354C264.189 83.8282 272.276 110.429 272.276 110.429V14.0215C272.276 14.0215 210.816 -8.6782 124.871 4.62795C75.6423 12.2495 42.1685 42.8058 40.0568 85.8423C37.9451 128.879 55.185 140.408 73.3884 151.401C99.0521 166.899 164.45 182.664 209.966 205.175C240.021 220.039 261.055 252.83 267.842 267.952C284.908 305.976 260.3 350.715 260.3 350.715C260.3 350.715 295.358 326.328 295.358 289.202C295.358 269.055 296.983 234.134 257.081 197.824C217.179 161.514 27.2203 136.954 76.8521 64.6354C102.601 27.1163 176.302 30.9005 198.128 37.6989C207.199 40.5244 231.361 49.0535 246.071 64.6354L246.071 64.6354Z" fill="url(#paint0_linear_1_11)"/>
<path d="M216.834 292.419C227.355 327.34 196.232 364.707 164.791 372.069C133.35 379.43 104.39 375.353 67.527 350.71C30.6642 326.068 17.3399 273.5 17.3399 273.5L21.7743 384.703C21.7743 384.703 125.985 416.489 181.072 397.157C221.534 382.958 251.052 347.018 246.683 303.761C245.603 293.075 246.602 263.292 205.831 234.827C183.041 218.917 110.438 206.295 56.2229 172.328C2.00799 138.361 17.3399 70.6078 17.3399 70.6078C17.3399 70.6078 -16.1394 123.926 10.2016 164.37C36.5427 204.814 90.8478 223.013 122.704 232.384C156.791 242.411 206.312 257.497 216.834 292.419V292.419Z" fill="url(#paint1_linear_1_11)"/>
<defs>
<linearGradient id="paint0_linear_1_11" x1="46.8361" y1="192.38" x2="288.24" y2="192.38" gradientUnits="userSpaceOnUse">
<stop stop-color="#F1C732"/>
<stop offset="0.489583" stop-color="#FFF0BC"/>
<stop offset="1" stop-color="#D0A200"/>
<stop offset="1" stop-color="#FFD951"/>
</linearGradient>
<linearGradient id="paint1_linear_1_11" x1="240.387" y1="221.04" x2="6.98686" y2="221.04" gradientUnits="userSpaceOnUse">
<stop stop-color="#F1C732"/>
<stop offset="0.489583" stop-color="#FFF0BC"/>
<stop offset="1" stop-color="#D0A200"/>
<stop offset="1" stop-color="#FFD951"/>
</linearGradient>
</defs>
</svg>
