<svg width="59" height="59" viewBox="0 0 59 59" fill="none" xmlns="http://www.w3.org/2000/svg">
<path d="M50.3093 8.72689C47.2043 5.62289 43.8183 3.15089 40.7733 1.76689C37.4263 0.245889 34.7883 0.205889 33.3383 1.65689C33.3373 1.65889 33.3353 1.65989 33.3333 1.66189C28.9883 6.00889 24.5253 13.1199 21.9633 19.7799C19.6543 25.7829 19.0913 30.7269 20.2713 34.1369L13.8643 40.5439C11.7343 42.6739 8.78626 43.7929 5.75626 43.5999C5.26926 43.5699 4.77426 43.6119 4.28326 43.7239C2.45326 44.1419 1.00026 45.5919 0.580263 47.4179C0.230263 48.9409 0.577263 50.5039 1.53326 51.7029C2.27626 52.6369 3.30426 53.2609 4.44626 53.4909C4.42026 54.5269 4.78026 55.7659 6.20726 57.1719C7.14026 58.0899 8.29526 58.5899 9.47426 58.5899C9.51626 58.5899 9.55826 58.5899 9.59926 58.5889C12.3173 58.5059 14.4453 56.3109 14.4453 53.5339C14.4083 50.2909 15.4953 47.3979 17.5043 45.3889L24.3503 38.5429C25.6263 39.0849 27.1373 39.3629 28.8683 39.3629C31.7753 39.3629 35.2843 38.5989 39.2553 37.0719C45.9163 34.5089 53.0273 30.0479 57.3743 25.7019C57.3753 25.7009 57.3773 25.6989 57.3793 25.6969C60.5953 22.4829 56.1363 14.5549 50.3093 8.72689ZM22.5693 37.4969L16.0913 43.9759C13.6983 46.3689 12.4043 49.7709 12.4463 53.5909C12.4463 55.2229 11.1693 56.5399 9.53926 56.5889C8.88626 56.6339 8.18326 56.3099 7.61026 55.7459C6.27726 54.4339 6.36026 53.5869 6.55926 52.8309L6.89626 51.5499L5.57226 51.5759C5.50626 51.5779 5.44126 51.5849 5.44626 51.5909C4.52726 51.5909 3.67126 51.1779 3.09826 50.4579C2.51526 49.7269 2.31426 48.8059 2.53026 47.8659C2.77626 46.7989 3.65926 45.9179 4.72926 45.6729C5.03426 45.6039 5.33826 45.5779 5.63426 45.5959C9.21726 45.8199 12.7433 44.4939 15.2803 41.9579L21.2143 36.0239C21.2343 36.0539 21.2613 36.0759 21.2813 36.1059C21.5083 36.4279 21.7513 36.7349 22.0263 37.0109C22.1953 37.1809 22.3773 37.3429 22.5693 37.4969ZM38.5383 35.2059C32.3663 37.5809 27.4073 37.9979 24.5783 36.4389C24.3973 36.3379 24.2283 36.2289 24.0663 36.1139C24.0363 36.0929 24.0023 36.0739 23.9723 36.0519C23.7913 35.9179 23.6243 35.7739 23.4703 35.6229C23.4603 35.6129 23.4493 35.6059 23.4393 35.5959C23.4363 35.5929 23.4343 35.5899 23.4313 35.5869C23.2363 35.3909 23.0593 35.1669 22.8943 34.9269C22.8593 34.8769 22.8273 34.8249 22.7943 34.7739C22.6403 34.5329 22.4963 34.2759 22.3713 33.9959C22.3643 33.9809 22.3563 33.9669 22.3493 33.9519L22.3043 33.8499C21.1043 30.9479 21.6183 26.2489 23.8313 20.4969C25.8313 15.2969 29.0223 9.82289 32.3753 5.71789C32.4213 6.01189 32.4893 6.31989 32.5693 6.63389C32.5923 6.72289 32.6203 6.81489 32.6453 6.90589C32.7163 7.16089 32.7983 7.42089 32.8913 7.68689C32.9273 7.78989 32.9623 7.89189 33.0013 7.99689C33.1343 8.35289 33.2793 8.71489 33.4493 9.08989C34.8333 12.1339 37.3053 15.5209 40.4093 18.6249C43.5133 21.7299 46.9003 24.2019 49.9453 25.5859C50.3283 25.7599 50.6993 25.9079 51.0633 26.0429C51.1653 26.0809 51.2643 26.1149 51.3653 26.1499C51.6503 26.2489 51.9293 26.3359 52.2013 26.4099C52.2793 26.4309 52.3583 26.4559 52.4353 26.4759C52.7373 26.5519 53.0333 26.6159 53.3183 26.6609C49.2123 30.0149 43.7383 33.2049 38.5383 35.2059ZM50.7743 23.7669C47.9423 22.4799 44.7643 20.1519 41.8243 17.2119C38.8853 14.2729 36.5573 11.0949 35.2703 8.26289C34.1533 5.80489 33.9593 3.86489 34.7533 3.07089C35.0773 2.74789 35.5903 2.58789 36.2523 2.58789C37.2143 2.58789 38.4893 2.92589 39.9463 3.58789C42.7783 4.87489 45.9563 7.20189 48.8953 10.1419C54.9653 16.2129 57.6353 22.6159 55.9663 24.2849C55.1723 25.0769 53.2323 24.8839 50.7743 23.7669Z" fill="white"/>
<path d="M47.4812 11.5559C44.7502 8.82486 42.3352 7.17786 40.7922 6.27886C39.9662 5.79686 38.9572 5.92586 38.2842 6.59986C37.6102 7.27386 37.4812 8.28286 37.9622 9.10886C38.8612 10.6529 40.5072 13.0659 43.2392 15.7979C45.9712 18.5299 48.3852 20.1759 49.9282 21.0749C50.2612 21.2689 50.6242 21.3639 50.9822 21.3639C51.5132 21.3639 52.0352 21.1559 52.4372 20.7529C53.1112 20.0789 53.2402 19.0709 52.7582 18.2439C51.8582 16.7009 50.2122 14.2869 47.4812 11.5559ZM50.9342 19.3469C49.4932 18.5069 47.2332 16.9649 44.6522 14.3839C42.0712 11.8029 40.5292 9.54286 39.6902 8.10286L39.7852 8.00686C41.2272 8.84686 43.4872 10.3899 46.0672 12.9699C48.6472 15.5499 50.1902 17.8099 51.0302 19.2519L50.9342 19.3469Z" fill="white"/>
<path d="M37.5734 19.1289C36.6974 18.2519 35.9004 17.3019 35.2714 16.3799C34.4644 15.1989 33.1344 14.5259 31.6864 14.5949C30.2454 14.6569 28.9644 15.4399 28.2614 16.6899C27.5844 17.8899 26.9984 19.1059 26.5194 20.3029C26.3134 20.8159 26.5624 21.3979 27.0754 21.6039C27.5894 21.8079 28.1704 21.5589 28.3754 21.0469C28.8224 19.9309 29.3704 18.7949 30.0034 17.6699C30.3654 17.0269 31.0264 16.6249 31.7734 16.5929C32.5234 16.5569 33.2074 16.9029 33.6214 17.5089C34.3294 18.5449 35.1844 19.5669 36.1614 20.5429C37.1384 21.5189 38.1594 22.3739 39.1954 23.0819C39.3684 23.1999 39.5644 23.2569 39.7584 23.2569C40.0774 23.2569 40.3914 23.1049 40.5854 22.8209C40.8974 22.3649 40.7804 21.7429 40.3244 21.4309C39.3874 20.7919 38.4634 20.0179 37.5734 19.1289Z" fill="white"/>
<path d="M37.9552 30.0349C33.0002 32.8239 28.4382 33.6729 26.8642 32.0979C26.3392 31.5739 26.0742 30.7309 26.0762 29.5929C26.0772 29.0399 25.6302 28.5919 25.0772 28.5909H25.0762C24.5242 28.5909 24.0772 29.0369 24.0762 29.5899C24.0742 31.2779 24.5352 32.5979 25.4502 33.5119C26.4192 34.4809 27.7852 34.8829 29.3562 34.8819C32.2682 34.8819 35.8782 33.4989 38.9372 31.7779C39.4182 31.5069 39.5882 30.8969 39.3182 30.4169C39.0472 29.9349 38.4382 29.7629 37.9552 30.0349Z" fill="white"/>
</svg>
