<svg width="64" height="64" viewBox="0 0 64 64" fill="none" xmlns="http://www.w3.org/2000/svg">
<g clip-path="url(#clip0_11_135)">
<path d="M7 33.0005V39.0005C7 39.5525 7.448 40.0005 8 40.0005H29C29.552 40.0005 30 39.5525 30 39.0005V33.0005C30 32.4485 29.552 32.0005 29 32.0005H8C7.448 32.0005 7 32.4485 7 33.0005ZM9 34.0005H28V38.0005H9V34.0005Z" fill="white"/>
<path d="M56 0.000488281H23C20.243 0.000488281 18 2.24349 18 5.00049V12.0005H8C7.448 12.0005 7 12.4485 7 13.0005V28.0005H4C3.448 28.0005 3 28.4485 3 29.0005V59.0005C3 61.7575 5.243 64.0005 8 64.0005H28C30.757 64.0005 33 61.7575 33 59.0005V29.0005C33 28.4485 32.552 28.0005 32 28.0005H29V26.0005H56C58.757 26.0005 61 23.7575 61 21.0005V5.00049C61 2.24349 58.757 0.000488281 56 0.000488281ZM19.026 24.0005H13V18.0005H18V21.0005C18 22.1305 18.391 23.1625 19.026 24.0005ZM31 59.0005C31 60.6545 29.654 62.0005 28 62.0005H8C6.346 62.0005 5 60.6545 5 59.0005V30.0005H8H28H31V59.0005ZM27 28.0005H9V14.0005H18V16.0005H12C11.448 16.0005 11 16.4485 11 17.0005V25.0005C11 25.5525 11.448 26.0005 12 26.0005H23H25H27V28.0005ZM59 21.0005C59 22.6545 57.654 24.0005 56 24.0005H29H27H26H23C21.346 24.0005 20 22.6545 20 21.0005V5.00049C20 3.34649 21.346 2.00049 23 2.00049H56C57.654 2.00049 59 3.34649 59 5.00049V21.0005Z" fill="white"/>
<path d="M54 4.00049H25C24.448 4.00049 24 4.44849 24 5.00049V21.0005C24 21.5525 24.448 22.0005 25 22.0005H54C54.552 22.0005 55 21.5525 55 21.0005V5.00049C55 4.44849 54.552 4.00049 54 4.00049ZM53 20.0005H26V6.00049H53V20.0005Z" fill="white"/>
<path d="M36 16.0005H38C39.654 16.0005 41 14.6545 41 13.0005C41 12.4495 41.449 12.0005 42 12.0005H44C44.551 12.0005 45 12.4495 45 13.0005C45 13.5515 44.551 14.0005 44 14.0005H43V16.0005H44C45.302 16.0005 46.402 15.1615 46.816 14.0005H48V12.0005H46.816C46.402 10.8395 45.302 10.0005 44 10.0005H42C40.346 10.0005 39 11.3465 39 13.0005C39 13.5515 38.551 14.0005 38 14.0005H36C35.449 14.0005 35 13.5515 35 13.0005C35 12.4495 35.449 12.0005 36 12.0005H37V10.0005H36C34.698 10.0005 33.598 10.8395 33.184 12.0005H32V14.0005H33.184C33.598 15.1615 34.698 16.0005 36 16.0005Z" fill="white"/>
<path d="M12 46.0005H8C7.448 46.0005 7 46.4485 7 47.0005V51.0005C7 51.5525 7.448 52.0005 8 52.0005H12C12.552 52.0005 13 51.5525 13 51.0005V47.0005C13 46.4485 12.552 46.0005 12 46.0005ZM11 50.0005H9V48.0005H11V50.0005Z" fill="white"/>
<path d="M20 46.0005H16C15.448 46.0005 15 46.4485 15 47.0005V51.0005C15 51.5525 15.448 52.0005 16 52.0005H20C20.552 52.0005 21 51.5525 21 51.0005V47.0005C21 46.4485 20.552 46.0005 20 46.0005ZM19 50.0005H17V48.0005H19V50.0005Z" fill="white"/>
<path d="M28 46.0005H24C23.448 46.0005 23 46.4485 23 47.0005V51.0005C23 51.5525 23.448 52.0005 24 52.0005H28C28.552 52.0005 29 51.5525 29 51.0005V47.0005C29 46.4485 28.552 46.0005 28 46.0005ZM27 50.0005H25V48.0005H27V50.0005Z" fill="white"/>
<path d="M12 54.0005H8C7.448 54.0005 7 54.4485 7 55.0005V59.0005C7 59.5525 7.448 60.0005 8 60.0005H12C12.552 60.0005 13 59.5525 13 59.0005V55.0005C13 54.4485 12.552 54.0005 12 54.0005ZM11 58.0005H9V56.0005H11V58.0005Z" fill="white"/>
<path d="M20 54.0005H16C15.448 54.0005 15 54.4485 15 55.0005V59.0005C15 59.5525 15.448 60.0005 16 60.0005H20C20.552 60.0005 21 59.5525 21 59.0005V55.0005C21 54.4485 20.552 54.0005 20 54.0005ZM19 58.0005H17V56.0005H19V58.0005Z" fill="white"/>
<path d="M28 54.0005H24C23.448 54.0005 23 54.4485 23 55.0005V59.0005C23 59.5525 23.448 60.0005 24 60.0005H28C28.552 60.0005 29 59.5525 29 59.0005V55.0005C29 54.4485 28.552 54.0005 28 54.0005ZM27 58.0005H25V56.0005H27V58.0005Z" fill="white"/>
<path d="M13 42.0005H7V44.0005H13V42.0005Z" fill="white"/>
<path d="M21 42.0005H15V44.0005H21V42.0005Z" fill="white"/>
<path d="M29 42.0005H23V44.0005H29V42.0005Z" fill="white"/>
</g>
<defs>
<clipPath id="clip0_11_135">
<rect width="64" height="64" fill="white" transform="translate(0 0.000488281)"/>
</clipPath>
</defs>
</svg>
