<svg width="154" height="154" viewBox="0 0 154 154" fill="none" xmlns="http://www.w3.org/2000/svg">
<path d="M76.1353 71.7507C72.5268 73.6593 68.0542 72.2812 66.1457 68.6726C64.2371 65.0641 65.6152 60.5915 69.2238 58.6829C72.8324 56.7744 77.3049 58.1525 79.2135 61.7611C81.122 65.3696 79.7439 69.8422 76.1353 71.7507Z" stroke="white" stroke-width="6" stroke-linecap="round" stroke-linejoin="round"/>
<path d="M69.2238 112.51C65.6152 114.418 61.1428 113.04 59.2342 109.432C57.3256 105.823 58.7036 101.35 62.3123 99.4419C65.921 97.5332 70.3933 98.9113 72.302 102.52C74.2106 106.129 72.8325 110.601 69.2238 112.51Z" stroke="white" stroke-width="6" stroke-linecap="round" stroke-linejoin="round"/>
<path d="M36.1755 86.5585L102.702 84.7811" stroke="white" stroke-width="6" stroke-linecap="round" stroke-linejoin="round"/>
<path d="M144.935 8.85285C134.104 -1.9905 116.48 -1.9905 105.648 8.85285C104.598 9.90396 104.598 11.6079 105.648 12.6587C106.698 13.7099 108.4 13.7099 109.45 12.6587C116.684 5.41725 131.052 2.5664 141.133 12.6587C151.036 22.5717 148.497 37.0039 141.133 44.3765C139.459 46.0522 137.583 47.4038 135.584 48.4373V46.0246C135.584 30.6901 123.122 18.2144 107.804 18.2144H77.1343C76.4212 18.2144 75.7373 18.4979 75.2334 19.0029L1.72876 92.587C0.678792 93.6381 0.678792 95.3421 1.72876 96.3929L57.4906 152.216C58.0153 152.741 58.7037 153.004 59.3915 153.004C60.0793 153.004 60.7676 152.741 61.2923 152.216L134.797 78.6311C135.301 78.1266 135.584 77.442 135.584 76.7281V54.3642C138.968 53.0168 142.157 50.9646 144.935 48.1824C155.767 37.3394 155.767 19.6962 144.935 8.85285ZM130.208 50.3867C125.803 51.3715 121.158 51.0196 116.928 49.3219C118.006 46.0406 117.407 42.1916 114.52 39.3018C110.677 35.454 104.423 35.4543 100.58 39.3018C96.6517 43.2341 96.8382 49.5119 100.58 53.2575C103.856 56.5375 109.696 57.3733 113.87 53.8505C118.986 56.152 124.7 56.8644 130.208 55.8888V75.6134L59.3917 146.507L7.43169 94.49L78.2478 23.597H107.805C120.158 23.597 130.208 33.6581 130.208 46.0246V50.3867H130.208ZM107.234 41.7919C108.494 41.7044 109.77 42.1586 110.718 43.1074C111.754 44.1445 112.098 45.4021 112.003 46.5733C111.111 45.9157 110.258 45.1841 109.451 44.3762C108.644 43.5684 107.905 42.7038 107.234 41.7919ZM108.496 50.6594C107.058 50.9684 105.497 50.5684 104.381 49.4516C103.203 48.2717 102.857 46.7268 103.166 45.3328C103.926 46.3336 104.754 47.2866 105.649 48.1827C106.549 49.0833 107.503 49.9051 108.496 50.6594Z" fill="white"/>
</svg>
