<svg width="295" height="390" viewBox="0 0 295 390" fill="none" xmlns="http://www.w3.org/2000/svg">
<path d="M3.81064 119.805C1.15464 97.1771 14.2066 75.7541 35.5526 67.7081C44.0786 64.4941 53.1516 63.7041 61.9186 65.3171C64.5206 45.9741 77.6056 28.9831 96.3656 21.9121C110.825 16.4631 126.616 16.9211 139.688 23.1661C151.03 28.5851 159.8 38.1011 164.689 50.1911C173.915 45.7141 184.44 44.1531 194.707 45.8981C199.062 46.6371 201.994 50.7691 201.254 55.1251C200.514 59.4811 196.388 62.4111 192.027 61.6721C183.962 60.3021 175.654 61.9391 168.77 66.1771C170.076 76.9841 168.498 87.6911 164.083 97.2301C162.227 101.24 157.468 102.981 153.463 101.13C149.452 99.2741 147.706 94.5191 149.563 90.5091C153.907 81.1221 154.347 69.5231 150.772 58.6871C147.569 48.9851 141.351 41.6941 132.79 37.6031C123.631 33.2261 112.411 32.9651 102.009 36.8841C86.2926 42.8091 76.2376 58.6231 77.5596 75.3431C77.7806 78.1431 76.5166 80.8541 74.2306 82.4861C71.9426 84.1181 68.9696 84.4301 66.3926 83.3091C58.3516 79.8111 49.4036 79.5861 41.1956 82.6811C26.7436 88.1281 17.9046 102.627 19.7016 117.94C20.2166 122.329 17.0766 126.303 12.6886 126.818C12.3726 126.855 12.0566 126.874 11.7466 126.874C7.74464 126.873 4.28864 123.876 3.81064 119.805ZM133.085 271.386C141.244 270.078 148.956 266.72 155.459 261.722C159.112 264.875 163.337 267.328 167.967 268.959C172.133 270.424 176.702 268.237 178.17 264.07C179.638 259.903 177.448 255.335 173.281 253.867C168.889 252.32 165.115 249.517 162.368 245.762C160.951 243.824 158.739 242.625 156.343 242.496C153.954 242.369 151.617 243.319 150 245.094C144.846 250.746 138.121 254.375 130.553 255.587C112.309 258.512 95.0606 246.042 92.1336 227.785C90.7476 219.125 92.7576 210.402 97.7936 203.223C99.4066 200.923 99.6956 197.947 98.5556 195.38C97.4156 192.814 95.0126 191.032 92.2256 190.689C75.5776 188.633 62.0946 175.618 59.4376 159.037C56.1276 138.384 70.2376 118.888 90.8906 115.578C100.896 113.971 110.925 116.362 119.132 122.303C127.34 128.243 132.744 137.026 134.349 147.034C134.754 149.553 134.907 152.108 134.801 154.631C134.662 157.968 136.612 161.041 139.69 162.337C142.77 163.634 146.329 162.88 148.619 160.448C151.2 157.708 154.19 155.439 157.509 153.707C161.426 151.662 162.944 146.829 160.899 142.913C158.854 138.996 154.02 137.478 150.105 139.523C149.812 139.676 149.52 139.832 149.231 139.991C146.176 127.645 138.935 116.883 128.514 109.341C116.843 100.895 102.578 97.5001 88.3596 99.7791C58.9956 104.485 38.9346 132.204 43.6396 161.568C46.8116 181.363 60.8396 197.584 79.2736 204.006C75.9386 212.27 74.8956 221.316 76.3356 230.317C78.8566 246.04 88.5616 258.859 101.561 265.959C97.6746 274.049 90.7976 281.103 82.1696 285.714C73.1606 290.528 63.6316 291.519 54.6116 288.576C44.9576 285.426 36.6526 277.876 31.8246 267.861C24.5336 252.733 28.1636 234.348 40.6536 223.152C42.7456 221.277 43.7006 218.442 43.1706 215.684C42.6396 212.925 40.7016 210.648 38.0646 209.682C29.8286 206.667 23.1966 200.658 19.3896 192.756C12.6826 178.844 16.2856 162.25 28.1506 152.403C31.5506 149.582 32.0196 144.538 29.1986 141.138C26.3786 137.739 21.3356 137.27 17.9336 140.09C0.39864 154.641 -4.92936 179.154 4.97664 199.702C8.93264 207.913 14.9556 214.742 22.4146 219.621C10.9556 235.421 8.70864 256.748 17.4126 274.807C24.1226 288.728 35.8726 299.29 49.6476 303.786C54.6076 305.404 59.7296 306.205 64.8776 306.205C73.3016 306.205 81.7896 304.058 89.7096 299.824C102.062 293.222 111.516 283.194 116.73 271.276C122.003 272.202 127.513 272.28 133.085 271.386ZM294.255 142.952L272.795 326.071C268.203 365.252 256.073 387.723 239.514 387.723C223.355 387.723 211.542 366.009 207.106 328.15L185.404 142.952C183.873 129.893 188.133 116.966 197.397 106.552C205.044 97.9561 215.444 91.8611 226.649 89.1381L211.969 34.6171C210.82 30.3501 213.347 25.9611 217.614 24.8121C221.881 23.6651 226.27 26.1911 227.419 30.4571L236.66 64.7751L252.239 6.91412C253.387 2.64712 257.778 0.117117 262.044 1.26912C266.311 2.41712 268.838 6.80712 267.689 11.0741L246.973 88.0111C260.434 89.7751 273.252 96.4291 282.259 106.552C291.525 116.967 295.786 129.893 294.255 142.952ZM270.305 117.187C262.703 108.642 251.311 103.541 239.829 103.541C228.346 103.541 216.951 108.642 209.35 117.186C203.163 124.14 200.302 132.629 201.293 141.089L201.601 143.715H236.824C241.242 143.715 244.824 147.297 244.824 151.715C244.824 156.133 241.242 159.715 236.824 159.715H203.477L210.224 217.287H235.441C239.859 217.287 243.441 220.869 243.441 225.287C243.441 229.705 239.859 233.287 235.441 233.287H212.099L222.996 326.287C227.059 360.954 236.525 371.723 239.514 371.723C242.67 371.723 252.656 360.462 256.905 324.208L260.976 289.463H250.481C246.063 289.463 242.481 285.881 242.481 281.463C242.481 277.045 246.063 273.463 250.481 273.463H262.851L271.871 196.5H239.83C235.412 196.5 231.83 192.918 231.83 188.5C231.83 184.082 235.412 180.5 239.83 180.5H273.746L278.365 141.089C279.355 132.631 276.494 124.142 270.305 117.187ZM161.655 294.954C160.779 290.623 156.56 287.823 152.228 288.697C147.897 289.573 145.096 293.793 145.971 298.124L163.117 382.956C163.885 386.752 167.221 389.373 170.95 389.373C171.475 389.373 172.009 389.32 172.544 389.213C176.875 388.337 179.676 384.117 178.801 379.786L161.655 294.954ZM124.908 317.99C124.032 313.659 119.804 310.864 115.481 311.733C111.15 312.609 108.349 316.829 109.224 321.16L121.715 382.956C122.483 386.752 125.819 389.373 129.548 389.373C130.073 389.373 130.608 389.32 131.142 389.213C135.473 388.337 138.274 384.117 137.399 379.786L124.908 317.99Z" fill="white"/>
</svg>
