<svg width="513" height="458" viewBox="0 0 513 458" fill="none" xmlns="http://www.w3.org/2000/svg">
<path d="M123.117 338.822C125.421 338.822 127.748 338.137 129.775 336.713C135.021 333.031 136.288 325.792 132.604 320.546C130.166 317.071 128.822 313.725 128.822 311.123C128.822 304.713 123.626 299.517 117.216 299.517C110.806 299.517 105.61 304.713 105.61 311.123C105.61 318.561 108.376 326.431 113.607 333.883C115.867 337.101 119.463 338.822 123.117 338.822Z" fill="white"/>
<path d="M170.425 365.745C176.756 366.968 182.537 367.959 188.099 368.775C188.67 368.859 189.236 368.899 189.798 368.899C195.462 368.899 200.42 364.746 201.266 358.976C202.196 352.636 197.809 346.74 191.467 345.81C186.255 345.045 180.813 344.112 174.83 342.955C168.542 341.738 162.449 345.854 161.233 352.147C160.017 358.441 164.132 364.529 170.425 365.745Z" fill="white"/>
<path d="M247.598 370.297C248.062 370.297 248.532 370.269 249.005 370.212C255.105 369.475 261.244 368.434 267.253 367.117C273.514 365.744 277.478 359.556 276.104 353.295C274.731 347.035 268.552 343.07 262.283 344.443C256.995 345.602 251.592 346.519 246.223 347.168C239.86 347.936 235.324 353.718 236.092 360.082C236.802 365.972 241.809 370.297 247.598 370.297Z" fill="white"/>
<path d="M318.854 346.903C320.709 346.903 322.59 346.457 324.338 345.518C329.522 342.731 334.803 339.668 340.03 336.412C345.471 333.024 347.136 325.867 343.748 320.426C340.36 314.985 333.205 313.321 327.762 316.709C322.95 319.704 318.103 322.516 313.35 325.071C307.704 328.105 305.587 335.141 308.621 340.787C310.716 344.686 314.718 346.903 318.854 346.903Z" fill="white"/>
<path d="M500.526 372.577H378.086C395.139 361.131 412.25 347.675 429.507 332.153C435.92 337.372 440.456 336.769 441.913 336.769C444.328 336.769 446.723 336.016 448.736 334.552C481.163 310.991 491.587 269.208 473.693 238.752C482.131 231.069 495.064 216.372 498.401 196.173C499.445 189.849 495.167 183.876 488.843 182.831C482.519 181.784 476.544 186.067 475.501 192.389C473.312 205.636 464.298 215.851 458.421 221.267C445.44 211.103 428.766 206.337 411.642 207.274L431.257 176.629C431.352 176.48 431.444 176.328 431.532 176.175C437.577 165.704 439.184 153.507 436.054 141.829C433.151 130.997 426.493 121.821 417.189 115.723L479.675 75.9756C485.083 72.5356 486.678 65.3626 483.238 59.9536C479.798 54.5456 472.626 52.9486 467.216 56.3906L424.854 83.3376L460.971 18.0266C464.073 12.4176 462.04 5.35562 456.431 2.25462C450.827 -0.846382 443.761 1.18462 440.659 6.79462L402.91 75.0576L402.298 18.2826C402.228 11.8726 397 6.73162 390.569 6.80262C384.16 6.87262 379.02 12.1226 379.089 18.5326L379.904 94.1656C369.872 88.9816 358.435 87.7346 347.452 90.6756C335.773 93.8046 326.013 101.295 319.969 111.765C319.896 111.893 319.824 112.023 319.754 112.153L293.899 161.163C287.747 147.403 279.561 134.52 269.503 122.984C250.703 101.406 220.699 92.5336 193.056 100.391C192.231 100.627 191.386 100.845 190.546 101.068C186.85 34.8646 144.238 19.7896 139.096 18.2136C129.607 15.2806 119.543 16.2216 110.76 20.8586C101.976 25.4976 95.5239 33.2806 92.5919 42.7776C87.1719 60.3506 95.6319 79.3516 111.964 87.2296C112.97 88.6996 115.222 92.9256 116.096 102.151C114.971 101.89 113.849 101.624 112.736 101.336C84.2439 94.0136 53.9139 103.626 35.4699 125.833C12.5609 153.443 0.0109186 188.442 0.130919 224.385C0.304919 274.364 24.8779 319.08 62.4979 347.081C66.5759 356.037 72.1679 364.62 79.1279 372.578H12.3129C5.90292 372.578 0.706919 377.774 0.706919 384.184C0.706919 424.713 33.6799 457.686 74.2089 457.686H438.628C479.157 457.686 512.13 424.713 512.13 384.184C512.132 377.773 506.935 372.577 500.526 372.577ZM451.619 247.323C465.306 266.16 459.998 293.836 440.212 311.634C433.741 308.104 432.6 304.689 430.175 297.43C428.043 291.047 425.123 282.305 417.642 272.009C410.162 261.712 402.751 256.235 397.339 252.234C392.938 248.981 390.208 246.951 388.512 243.414L394.032 234.791C415.465 225.853 439.313 230.385 451.619 247.323ZM303.915 191.923L317.678 165.835L339.536 178.455C341.364 179.51 343.359 180.011 345.327 180.011C349.338 180.011 353.239 177.93 355.389 174.207C358.594 168.656 356.692 161.558 351.141 158.354L328.515 145.291L340.169 123.201C343.121 118.19 347.833 114.606 353.459 113.098C359.147 111.573 365.089 112.355 370.191 115.301L403.359 134.45C408.46 137.396 412.109 142.15 413.634 147.839C415.138 153.452 414.397 159.31 411.548 164.364L378.051 216.699C378.029 216.711 378.006 216.721 377.984 216.734L347.986 199.415C342.433 196.208 335.336 198.112 332.133 203.663C328.927 209.214 330.83 216.312 336.381 219.516L365.563 236.066L356.278 250.718C341.412 260.126 325.271 265.547 307.943 266.978L302.1 263.604C305.507 250.801 307.276 237.466 307.276 223.846C307.275 213.041 306.13 202.347 303.915 191.923ZM199.414 122.715C218.437 117.308 239.081 123.4 252.005 138.234C272.678 161.948 284.063 192.351 284.063 223.845C284.063 238.252 281.735 252.285 277.278 265.535C271.459 264.561 265.532 263.212 259.492 261.457C250.795 258.93 242.312 255.135 234.117 250.133C239.077 222.243 237.917 196.9 230.592 174.26C222.785 150.131 209.332 133.75 197.477 123.238C198.124 123.062 198.777 122.897 199.414 122.715ZM208.51 181.403C213.557 197.002 214.956 214.659 212.802 234.078C199.009 223.249 182.603 216.353 165.31 214.05V129.029C169.285 130.908 196.744 145.036 208.51 181.403ZM114.773 49.6186C115.874 46.0496 118.299 43.1256 121.599 41.3816C124.898 39.6396 128.678 39.2866 132.268 40.3946C135.853 41.4936 165.682 52.2466 167.505 105.221C158.289 106.165 148.838 106.308 139.565 105.639C138.568 80.5726 129.678 71.1696 125.516 68.1306C124.723 67.5516 123.861 67.0756 122.948 66.7136C116.23 64.0506 112.638 56.5396 114.773 49.6186ZM142.066 129.046C142.076 129.046 142.087 129.047 142.098 129.047V213.731C124.38 215.59 108.059 222.198 94.4199 232.249C92.5689 213.763 93.9749 196.9 98.7299 181.926C110.327 145.405 137.6 131.165 142.066 129.046ZM73.8029 252.751C62.2259 268.297 55.1719 287.384 54.5319 308.059C35.2099 285.377 23.4549 256.1 23.3449 224.304C23.2439 193.791 33.8949 164.084 53.3329 140.657C63.2139 128.759 78.1009 122.113 93.5399 122.113C97.9969 122.113 102.502 122.668 106.942 123.809C107.555 123.968 108.177 124.106 108.792 124.258C97.2229 134.801 84.3719 150.898 76.8149 174.258C69.2609 197.602 68.2909 223.829 73.8029 252.751ZM77.6649 311.124C77.6649 269.921 111.186 236.4 152.389 236.4C170.441 236.4 187.868 242.934 201.461 254.798C217.379 268.691 234.725 278.431 253.016 283.745C286.069 293.347 332.684 296.895 376.31 265.147C378.643 267.274 381.101 269.095 383.54 270.899C388.43 274.513 393.485 278.25 398.863 285.651C404.24 293.052 406.233 299.015 408.158 304.782C409.413 308.538 410.682 312.336 412.688 316.063C384.16 341.526 357.46 359.775 332.35 372.576H113.335C92.8069 357.74 77.6649 335.95 77.6649 311.124ZM438.63 434.474H74.2109C50.4729 434.474 30.5239 417.943 25.2709 395.789H487.57C482.316 417.943 462.368 434.474 438.63 434.474Z" fill="white"/>
</svg>
